<?xml version="1.0" encoding="UTF-8" standalone="no"?>
<!-- Creator: Corel DESIGNER -->

<svg
   xmlns:dc="http://purl.org/dc/elements/1.1/"
   xmlns:cc="http://creativecommons.org/ns#"
   xmlns:rdf="http://www.w3.org/1999/02/22-rdf-syntax-ns#"
   xmlns:svg="http://www.w3.org/2000/svg"
   xmlns="http://www.w3.org/2000/svg"
   xmlns:sodipodi="http://sodipodi.sourceforge.net/DTD/sodipodi-0.dtd"
   xmlns:inkscape="http://www.inkscape.org/namespaces/inkscape"
   xml:space="preserve"
   width="701px"
   height="122px"
   style="shape-rendering:geometricPrecision; text-rendering:geometricPrecision; image-rendering:optimizeQuality; fill-rule:evenodd; clip-rule:evenodd"
   viewBox="0 0 701 122.026"
   version="1.1"
   id="svg40"
   sodipodi:docname="Graphics_pipeline_2_en.svg"
   inkscape:version="0.92.0 r15299"><metadata
     id="metadata44"><rdf:RDF><cc:Work
         rdf:about=""><dc:format>image/svg+xml</dc:format><dc:type
           rdf:resource="http://purl.org/dc/dcmitype/StillImage" /><dc:title></dc:title></cc:Work></rdf:RDF></metadata><sodipodi:namedview
     pagecolor="#ffffff"
     bordercolor="#666666"
     borderopacity="1"
     objecttolerance="10"
     gridtolerance="10"
     guidetolerance="10"
     inkscape:pageopacity="0"
     inkscape:pageshadow="2"
     inkscape:window-width="1920"
     inkscape:window-height="1137"
     id="namedview42"
     showgrid="false"
     inkscape:zoom="1.5332415"
     inkscape:cx="259.5385"
     inkscape:cy="116.81507"
     inkscape:window-x="1352"
     inkscape:window-y="-8"
     inkscape:window-maximized="1"
     inkscape:current-layer="Layer_x0020_1" /><defs
     id="defs4"><style
       type="text/css"
       id="style2"><![CDATA[
    .str0 {stroke:#1F1A17;stroke-width:0.721239;stroke-linecap:round;stroke-linejoin:round}
    .fil3 {fill:#1F1A17}
    .fil1 {fill:#C2C1C1}
    .fil5 {fill:#CDC5DD}
    .fil4 {fill:#AECEDB}
    .fil2 {fill:#D1DDE8}
    .fil7 {fill:#D8BDD2}
    .fil0 {fill:white}
    .fil6 {fill:#1F1A17;fill-rule:nonzero}
    .fnt1 {font-weight:normal;font-size:15.8662;font-family:'DejaVu Sans'}
    .fnt0 {font-weight:normal;font-size:17.3087;font-family:'DejaVu Sans'}
   ]]></style></defs><g
     id="Layer_x0020_1"><metadata
       id="CorelCorpID_0Corel-Layer" /><rect
       class="fil0"
       x="-0.000204433"
       y="-0.000204433"
       width="701"
       height="122.026"
       id="rect7" /><rect
       class="fil1 str0"
       x="554.802"
       y="14.3502"
       width="120.009"
       height="93.3268"
       rx="12.0971"
       ry="12.0971"
       id="rect9" /><rect
       class="fil2 str0"
       x="561.402"
       y="20.9501"
       width="106.809"
       height="80.1271"
       id="rect11" /><text
       x="584.31"
       y="67.466904"
       class="fil3 fnt0"
       id="text13"
       style="font-weight:normal;font-size:17.30870056px;font-family:'DejaVu Sans';fill:#1f1a17">Screen</text>
<rect
       class="fil4"
       x="25.7131"
       y="28.0226"
       width="148.424"
       height="65.9808"
       id="rect15" /><text
       x="53.642101"
       y="66.928596"
       class="fil3 fnt1"
       id="text17"
       style="font-weight:normal;font-size:15.86620045px;font-family:'DejaVu Sans';fill:#1f1a17">Application</text>
<rect
       class="fil5"
       x="202.076"
       y="28.0226"
       width="148.424"
       height="65.9808"
       id="rect19" /><text
       x="235.03999"
       y="66.928596"
       class="fil3 fnt1"
       id="text21"
       style="font-weight:normal;font-size:15.86620045px;font-family:'DejaVu Sans';fill:#1f1a17">Geometry</text>
<g
       id="g25"><path
         class="fil6"
         d="M174.137 60.2917l0 1.44248 -0.0372068 -0.00102216 -0.0365935 -0.00265763 -0.0359802 -0.00470195 -0.0355713 -0.00633742 -0.034958 -0.00797288 -0.0341403 -0.00981277 -0.033527 -0.0112438 -0.0327092 -0.0128793 -0.0318915 -0.0145147 -0.0310738 -0.0159458 -0.0302561 -0.0173768 -0.0292339 -0.0188078 -0.0284162 -0.0200344 -0.0271896 -0.0214654 -0.0261674 -0.022692 -0.0251452 -0.0237142 -0.0237142 -0.0251452 -0.022692 -0.0261674 -0.0214654 -0.0271896 -0.0200344 -0.0284162 -0.0188078 -0.0292339 -0.0173768 -0.0302561 -0.0159458 -0.0310738 -0.0145147 -0.0318915 -0.0128793 -0.0327092 -0.0112438 -0.033527 -0.00981277 -0.0341403 -0.00797288 -0.034958 -0.00633742 -0.0355713 -0.00470195 -0.0359802 -0.00265763 -0.0365935 -0.00102216 -0.0372068 0.00102216 -0.0372068 0.00265763 -0.0365935 0.00470195 -0.0359802 0.00633742 -0.0355713 0.00797288 -0.034958 0.00981277 -0.0341403 0.0112438 -0.033527 0.0128793 -0.0327092 0.0145147 -0.0318915 0.0159458 -0.0310738 0.0173768 -0.0302561 0.0188078 -0.0292339 0.0200344 -0.0284162 0.0214654 -0.0271896 0.022692 -0.0261674 0.0237142 -0.0251452 0.0251452 -0.0237142 0.0261674 -0.022692 0.0271896 -0.0214654 0.0284162 -0.0200344 0.0292339 -0.0188078 0.0302561 -0.0173768 0.0310738 -0.0159458 0.0318915 -0.0145147 0.0327092 -0.0128793 0.033527 -0.0112438 0.0341403 -0.00981277 0.034958 -0.00797288 0.0355713 -0.00633742 0.0359802 -0.00470195 0.0365935 -0.00265763 0.0372068 -0.00102216zm22.8644 1.44248l-22.8644 0 0 -1.44248 22.8644 0 0 1.44248zm5.07463 -0.721239l-8.77691 3.0624 0.113869 -0.191349 0.106509 -0.191349 0.0991499 -0.191349 0.0917903 -0.191554 0.0846352 -0.191349 0.0770712 -0.191349 0.0697116 -0.191554 0.0625564 -0.191349 0.0549924 -0.191349 0.0478373 -0.191349 0.0404777 -0.191554 0.0329137 -0.191349 0.0257585 -0.191349 0.018399 -0.191349 0.0110394 -0.191554 0.00367979 -0.191349 -0.00367979 -0.191349 -0.0110394 -0.191554 -0.018399 -0.191349 -0.0257585 -0.191349 -0.0329137 -0.191349 -0.0404777 -0.191554 -0.0478373 -0.191349 -0.0549924 -0.191349 -0.0625564 -0.191349 -0.0697116 -0.191554 -0.0770712 -0.191349 -0.0846352 -0.191349 -0.0917903 -0.191554 -0.0991499 -0.191349 -0.106509 -0.191349 -0.113869 -0.191349 0 0 8.77691 3.0624zm-5.07463 0.721239l0 -1.44248 0.0372068 0.00102216 0.0365935 0.00265763 0.0359802 0.00470195 0.0355713 0.00633742 0.034958 0.00797288 0.0341403 0.00981277 0.033527 0.0112438 0.0327092 0.0128793 0.0318915 0.0145147 0.0310738 0.0159458 0.0302561 0.0173768 0.0292339 0.0188078 0.0284162 0.0200344 0.0271896 0.0214654 0.0261674 0.022692 0.0249408 0.0237142 0.0239186 0.0251452 0.022692 0.0261674 0.0214654 0.0271896 0.0200344 0.0284162 0.0188078 0.0292339 0.0173768 0.0302561 0.0159458 0.0310738 0.0145147 0.0318915 0.0128793 0.0327092 0.0112438 0.033527 0.00981277 0.0341403 0.00797288 0.034958 0.00633742 0.0355713 0.00470195 0.0359802 0.00265763 0.0365935 0.00102216 0.0372068 -0.00102216 0.0372068 -0.00265763 0.0365935 -0.00470195 0.0359802 -0.00633742 0.0355713 -0.00797288 0.034958 -0.00981277 0.0341403 -0.0112438 0.033527 -0.0128793 0.0327092 -0.0145147 0.0318915 -0.0159458 0.0310738 -0.0173768 0.0302561 -0.0188078 0.0292339 -0.0200344 0.0284162 -0.0214654 0.0271896 -0.022692 0.0261674 -0.0239186 0.0251452 -0.0249408 0.0237142 -0.0261674 0.022692 -0.0271896 0.0214654 -0.0284162 0.0200344 -0.0292339 0.0188078 -0.0302561 0.0173768 -0.0310738 0.0159458 -0.0318915 0.0145147 -0.0327092 0.0128793 -0.033527 0.0112438 -0.0341403 0.00981277 -0.034958 0.00797288 -0.0355713 0.00633742 -0.0359802 0.00470195 -0.0365935 0.00265763 -0.0372068 0.00102216z"
         id="path23" /></g><rect
       class="fil7"
       x="378.439"
       y="28.0226"
       width="148.424"
       height="65.9808"
       id="rect27" /><text
       x="404.66928"
       y="66.928596"
       class="fil3 fnt1"
       id="text29"
       style="font-weight:normal;font-size:15.86620045px;font-family:'DejaVu Sans';fill:#1f1a17">Rasterization</text>
<g
       id="g33"><path
         class="fil6"
         d="M350.5 60.2917l0 1.44248 -0.0372068 -0.00102216 -0.0365935 -0.00265763 -0.0359802 -0.00470195 -0.0355713 -0.00633742 -0.034958 -0.00797288 -0.0341403 -0.00981277 -0.033527 -0.0112438 -0.0327092 -0.0128793 -0.0318915 -0.0145147 -0.0310738 -0.0159458 -0.0302561 -0.0173768 -0.0292339 -0.0188078 -0.0284162 -0.0200344 -0.0271896 -0.0214654 -0.0261674 -0.022692 -0.0251452 -0.0237142 -0.0237142 -0.0251452 -0.022692 -0.0261674 -0.0214654 -0.0271896 -0.0200344 -0.0284162 -0.0188078 -0.0292339 -0.0173768 -0.0302561 -0.0159458 -0.0310738 -0.0145147 -0.0318915 -0.0128793 -0.0327092 -0.0112438 -0.033527 -0.00981277 -0.0341403 -0.00797288 -0.034958 -0.00633742 -0.0355713 -0.00470195 -0.0359802 -0.00265763 -0.0365935 -0.00102216 -0.0372068 0.00102216 -0.0372068 0.00265763 -0.0365935 0.00470195 -0.0359802 0.00633742 -0.0355713 0.00797288 -0.034958 0.00981277 -0.0341403 0.0112438 -0.033527 0.0128793 -0.0327092 0.0145147 -0.0318915 0.0159458 -0.0310738 0.0173768 -0.0302561 0.0188078 -0.0292339 0.0200344 -0.0284162 0.0214654 -0.0271896 0.022692 -0.0261674 0.0237142 -0.0251452 0.0251452 -0.0237142 0.0261674 -0.022692 0.0271896 -0.0214654 0.0284162 -0.0200344 0.0292339 -0.0188078 0.0302561 -0.0173768 0.0310738 -0.0159458 0.0318915 -0.0145147 0.0327092 -0.0128793 0.033527 -0.0112438 0.0341403 -0.00981277 0.034958 -0.00797288 0.0355713 -0.00633742 0.0359802 -0.00470195 0.0365935 -0.00265763 0.0372068 -0.00102216zm22.8644 1.44248l-22.8644 0 0 -1.44248 22.8644 0 0 1.44248zm5.07463 -0.721239l-8.77691 3.0624 0.113869 -0.191349 0.106509 -0.191349 0.0991499 -0.191349 0.0917903 -0.191554 0.0846352 -0.191349 0.0770712 -0.191349 0.0697116 -0.191554 0.0625564 -0.191349 0.0549924 -0.191349 0.0478373 -0.191349 0.0404777 -0.191554 0.0329137 -0.191349 0.0257585 -0.191349 0.018399 -0.191349 0.0110394 -0.191554 0.00367979 -0.191349 -0.00367979 -0.191349 -0.0110394 -0.191554 -0.018399 -0.191349 -0.0257585 -0.191349 -0.0329137 -0.191349 -0.0404777 -0.191554 -0.0478373 -0.191349 -0.0549924 -0.191349 -0.0625564 -0.191349 -0.0697116 -0.191554 -0.0770712 -0.191349 -0.0846352 -0.191349 -0.0917903 -0.191554 -0.0991499 -0.191349 -0.106509 -0.191349 -0.113869 -0.191349 0 0 8.77691 3.0624zm-5.07463 0.721239l0 -1.44248 0.0372068 0.00102216 0.0365935 0.00265763 0.0359802 0.00470195 0.0355713 0.00633742 0.034958 0.00797288 0.0341403 0.00981277 0.033527 0.0112438 0.0327092 0.0128793 0.0318915 0.0145147 0.0310738 0.0159458 0.0302561 0.0173768 0.0292339 0.0188078 0.0284162 0.0200344 0.0271896 0.0214654 0.0261674 0.022692 0.0251452 0.0237142 0.0237142 0.0251452 0.022692 0.0261674 0.0214654 0.0271896 0.0200344 0.0284162 0.0188078 0.0292339 0.0173768 0.0302561 0.0159458 0.0310738 0.0145147 0.0318915 0.0128793 0.0327092 0.0112438 0.033527 0.00981277 0.0341403 0.00797288 0.034958 0.00633742 0.0355713 0.00470195 0.0359802 0.00265763 0.0365935 0.00102216 0.0372068 -0.00102216 0.0372068 -0.00265763 0.0365935 -0.00470195 0.0359802 -0.00633742 0.0355713 -0.00797288 0.034958 -0.00981277 0.0341403 -0.0112438 0.033527 -0.0128793 0.0327092 -0.0145147 0.0318915 -0.0159458 0.0310738 -0.0173768 0.0302561 -0.0188078 0.0292339 -0.0200344 0.0284162 -0.0214654 0.0271896 -0.022692 0.0261674 -0.0237142 0.0251452 -0.0251452 0.0237142 -0.0261674 0.022692 -0.0271896 0.0214654 -0.0284162 0.0200344 -0.0292339 0.0188078 -0.0302561 0.0173768 -0.0310738 0.0159458 -0.0318915 0.0145147 -0.0327092 0.0128793 -0.033527 0.0112438 -0.0341403 0.00981277 -0.034958 0.00797288 -0.0355713 0.00633742 -0.0359802 0.00470195 -0.0365935 0.00265763 -0.0372068 0.00102216z"
         id="path31" /></g><g
       id="g37"><path
         class="fil6"
         d="M526.863 60.2919l0 1.44248 -0.0372068 -0.00102216 -0.0365935 -0.00265763 -0.0359802 -0.00470195 -0.0355713 -0.00633742 -0.034958 -0.00797288 -0.0341403 -0.00981277 -0.033527 -0.0112438 -0.0327092 -0.0128793 -0.0318915 -0.0145147 -0.0310738 -0.0159458 -0.0302561 -0.0173768 -0.0292339 -0.0188078 -0.0284162 -0.0200344 -0.0271896 -0.0214654 -0.0261674 -0.022692 -0.0249408 -0.0237142 -0.0239186 -0.0251452 -0.022692 -0.0261674 -0.0214654 -0.0271896 -0.0200344 -0.0284162 -0.0188078 -0.0292339 -0.0173768 -0.0302561 -0.0159458 -0.0310738 -0.0145147 -0.0318915 -0.0128793 -0.0327092 -0.0112438 -0.033527 -0.00981277 -0.0341403 -0.00797288 -0.034958 -0.00633742 -0.0355713 -0.00470195 -0.0359802 -0.00265763 -0.0365935 -0.00102216 -0.0372068 0.00102216 -0.0372068 0.00265763 -0.0365935 0.00470195 -0.0359802 0.00633742 -0.0355713 0.00797288 -0.034958 0.00981277 -0.0341403 0.0112438 -0.033527 0.0128793 -0.0327092 0.0145147 -0.0318915 0.0159458 -0.0310738 0.0173768 -0.0302561 0.0188078 -0.0292339 0.0200344 -0.0284162 0.0214654 -0.0271896 0.022692 -0.0261674 0.0239186 -0.0251452 0.0249408 -0.0237142 0.0261674 -0.022692 0.0271896 -0.0214654 0.0284162 -0.0200344 0.0292339 -0.0188078 0.0302561 -0.0173768 0.0310738 -0.0159458 0.0318915 -0.0145147 0.0327092 -0.0128793 0.033527 -0.0112438 0.0341403 -0.00981277 0.034958 -0.00797288 0.0355713 -0.00633742 0.0359802 -0.00470195 0.0365935 -0.00265763 0.0372068 -0.00102216zm22.8644 1.44248l-22.8644 0 0 -1.44248 22.8644 0 0 1.44248zm5.07463 -0.721239l-8.77691 3.0624 0.113869 -0.191349 0.106509 -0.191349 0.0991499 -0.191349 0.0917903 -0.191554 0.0846352 -0.191349 0.0770712 -0.191349 0.0697116 -0.191554 0.0625564 -0.191349 0.0549924 -0.191349 0.0478373 -0.191349 0.0404777 -0.191554 0.0329137 -0.191349 0.0257585 -0.191349 0.018399 -0.191349 0.0110394 -0.191554 0.00367979 -0.191349 -0.00367979 -0.191349 -0.0110394 -0.191554 -0.018399 -0.191349 -0.0257585 -0.191349 -0.0329137 -0.191349 -0.0404777 -0.191554 -0.0478373 -0.191349 -0.0549924 -0.191349 -0.0625564 -0.191349 -0.0697116 -0.191554 -0.0770712 -0.191349 -0.0846352 -0.191349 -0.0917903 -0.191554 -0.0991499 -0.191349 -0.106509 -0.191349 -0.113869 -0.191349 0 0 8.77691 3.0624zm-5.07463 0.721239l0 -1.44248 0.0372068 0.00102216 0.0365935 0.00265763 0.0359802 0.00470195 0.0355713 0.00633742 0.034958 0.00797288 0.0341403 0.00981277 0.033527 0.0112438 0.0327092 0.0128793 0.0318915 0.0145147 0.0310738 0.0159458 0.0302561 0.0173768 0.0292339 0.0188078 0.0284162 0.0200344 0.0271896 0.0214654 0.0261674 0.022692 0.0251452 0.0237142 0.0237142 0.0251452 0.022692 0.0261674 0.0214654 0.0271896 0.0200344 0.0284162 0.0188078 0.0292339 0.0173768 0.0302561 0.0159458 0.0310738 0.0145147 0.0318915 0.0128793 0.0327092 0.0112438 0.033527 0.00981277 0.0341403 0.00797288 0.034958 0.00633742 0.0355713 0.00470195 0.0359802 0.00265763 0.0365935 0.00102216 0.0372068 -0.00102216 0.0372068 -0.00265763 0.0365935 -0.00470195 0.0359802 -0.00633742 0.0355713 -0.00797288 0.034958 -0.00981277 0.0341403 -0.0112438 0.033527 -0.0128793 0.0327092 -0.0145147 0.0318915 -0.0159458 0.0310738 -0.0173768 0.0302561 -0.0188078 0.0292339 -0.0200344 0.0284162 -0.0214654 0.0271896 -0.022692 0.0261674 -0.0237142 0.0251452 -0.0251452 0.0237142 -0.0261674 0.022692 -0.0271896 0.0214654 -0.0284162 0.0200344 -0.0292339 0.0188078 -0.0302561 0.0173768 -0.0310738 0.0159458 -0.0318915 0.0145147 -0.0327092 0.0128793 -0.033527 0.0112438 -0.0341403 0.00981277 -0.034958 0.00797288 -0.0355713 0.00633742 -0.0359802 0.00470195 -0.0365935 0.00265763 -0.0372068 0.00102216z"
         id="path35" /></g></g></svg>